<mxfile host="app.diagrams.net" agent="Mozilla/5.0 (Windows NT 10.0; Win64; x64) AppleWebKit/537.36 (KHTML, like Gecko) Chrome/136.0.0.0 Safari/537.36" version="27.0.9">
  <diagram name="Page-1" id="cxGQn_AJBZsu-Rfjh0je">
    <mxGraphModel dx="1675" dy="975" grid="1" gridSize="10" guides="1" tooltips="1" connect="1" arrows="1" fold="1" page="1" pageScale="1" pageWidth="850" pageHeight="1100" math="0" shadow="0">
      <root>
        <mxCell id="0" />
        <mxCell id="1" parent="0" />
        <mxCell id="6QOI-_YGZ4mxzyUcx8S3-1" value="" style="rounded=0;whiteSpace=wrap;html=1;" vertex="1" parent="1">
          <mxGeometry x="50" y="110" width="150" height="50" as="geometry" />
        </mxCell>
        <mxCell id="6QOI-_YGZ4mxzyUcx8S3-4" value="" style="rounded=0;whiteSpace=wrap;html=1;" vertex="1" parent="1">
          <mxGeometry x="240" y="110" width="150" height="50" as="geometry" />
        </mxCell>
        <mxCell id="6QOI-_YGZ4mxzyUcx8S3-5" value="" style="rounded=0;whiteSpace=wrap;html=1;" vertex="1" parent="1">
          <mxGeometry x="440" y="110" width="150" height="50" as="geometry" />
        </mxCell>
        <mxCell id="6QOI-_YGZ4mxzyUcx8S3-6" value="" style="rounded=0;whiteSpace=wrap;html=1;" vertex="1" parent="1">
          <mxGeometry x="640" y="110" width="150" height="50" as="geometry" />
        </mxCell>
        <mxCell id="6QOI-_YGZ4mxzyUcx8S3-7" value="&lt;b&gt;&lt;font style=&quot;font-size: 20px;&quot;&gt;&lt;i&gt;product&lt;/i&gt;&lt;/font&gt;&lt;/b&gt;" style="text;html=1;align=center;verticalAlign=middle;whiteSpace=wrap;rounded=0;" vertex="1" parent="1">
          <mxGeometry x="90" y="65" width="60" height="30" as="geometry" />
        </mxCell>
        <mxCell id="6QOI-_YGZ4mxzyUcx8S3-8" value="&lt;b&gt;&lt;font style=&quot;font-size: 18px;&quot;&gt;&lt;i&gt;price&lt;/i&gt;&lt;/font&gt;&lt;/b&gt;" style="text;html=1;align=center;verticalAlign=middle;resizable=0;points=[];autosize=1;strokeColor=none;fillColor=none;" vertex="1" parent="1">
          <mxGeometry x="260" y="55" width="70" height="40" as="geometry" />
        </mxCell>
        <mxCell id="6QOI-_YGZ4mxzyUcx8S3-10" value="&lt;span style=&quot;font-size: 20px;&quot;&gt;&lt;b&gt;&lt;i&gt;quantity&lt;/i&gt;&lt;/b&gt;&lt;/span&gt;" style="text;html=1;align=center;verticalAlign=middle;whiteSpace=wrap;rounded=0;" vertex="1" parent="1">
          <mxGeometry x="440" y="60" width="60" height="30" as="geometry" />
        </mxCell>
        <mxCell id="6QOI-_YGZ4mxzyUcx8S3-14" value="&lt;span style=&quot;font-size: 20px;&quot;&gt;&lt;b&gt;&lt;i&gt;Total Amount&lt;/i&gt;&lt;/b&gt;&lt;/span&gt;" style="text;html=1;align=center;verticalAlign=middle;whiteSpace=wrap;rounded=0;" vertex="1" parent="1">
          <mxGeometry x="640" y="60" width="130" height="30" as="geometry" />
        </mxCell>
        <mxCell id="6QOI-_YGZ4mxzyUcx8S3-16" value="&lt;b&gt;&lt;font style=&quot;font-size: 17px;&quot;&gt;Add to table&lt;/font&gt;&lt;/b&gt;" style="rounded=0;whiteSpace=wrap;html=1;fillColor=#1ba1e2;fontColor=#ffffff;strokeColor=#006EAF;" vertex="1" parent="1">
          <mxGeometry x="380" y="240" width="120" height="60" as="geometry" />
        </mxCell>
        <mxCell id="6QOI-_YGZ4mxzyUcx8S3-19" value="" style="endArrow=none;html=1;rounded=0;" edge="1" parent="1">
          <mxGeometry width="50" height="50" relative="1" as="geometry">
            <mxPoint x="30" y="420" as="sourcePoint" />
            <mxPoint x="790" y="420" as="targetPoint" />
          </mxGeometry>
        </mxCell>
        <mxCell id="6QOI-_YGZ4mxzyUcx8S3-23" value="&lt;b&gt;&lt;font style=&quot;font-size: 20px;&quot;&gt;&lt;i&gt;product&lt;/i&gt;&lt;/font&gt;&lt;/b&gt;" style="text;html=1;align=center;verticalAlign=middle;whiteSpace=wrap;rounded=0;" vertex="1" parent="1">
          <mxGeometry x="70" y="360" width="60" height="30" as="geometry" />
        </mxCell>
        <mxCell id="6QOI-_YGZ4mxzyUcx8S3-24" value="&lt;b&gt;&lt;font style=&quot;font-size: 18px;&quot;&gt;&lt;i&gt;price&lt;/i&gt;&lt;/font&gt;&lt;/b&gt;" style="text;html=1;align=center;verticalAlign=middle;resizable=0;points=[];autosize=1;strokeColor=none;fillColor=none;" vertex="1" parent="1">
          <mxGeometry x="240" y="350" width="70" height="40" as="geometry" />
        </mxCell>
        <mxCell id="6QOI-_YGZ4mxzyUcx8S3-25" value="&lt;span style=&quot;font-size: 20px;&quot;&gt;&lt;b&gt;&lt;i&gt;quantity&lt;/i&gt;&lt;/b&gt;&lt;/span&gt;" style="text;html=1;align=center;verticalAlign=middle;whiteSpace=wrap;rounded=0;" vertex="1" parent="1">
          <mxGeometry x="420" y="355" width="60" height="30" as="geometry" />
        </mxCell>
        <mxCell id="6QOI-_YGZ4mxzyUcx8S3-26" value="&lt;span style=&quot;font-size: 20px;&quot;&gt;&lt;b&gt;&lt;i&gt;Total Amount&lt;/i&gt;&lt;/b&gt;&lt;/span&gt;" style="text;html=1;align=center;verticalAlign=middle;whiteSpace=wrap;rounded=0;" vertex="1" parent="1">
          <mxGeometry x="620" y="355" width="130" height="30" as="geometry" />
        </mxCell>
        <mxCell id="6QOI-_YGZ4mxzyUcx8S3-27" value="1." style="text;html=1;align=center;verticalAlign=middle;whiteSpace=wrap;rounded=0;" vertex="1" parent="1">
          <mxGeometry x="20" y="440" width="60" height="30" as="geometry" />
        </mxCell>
        <mxCell id="6QOI-_YGZ4mxzyUcx8S3-29" value="2." style="text;html=1;align=center;verticalAlign=middle;whiteSpace=wrap;rounded=0;" vertex="1" parent="1">
          <mxGeometry x="20" y="505" width="60" height="30" as="geometry" />
        </mxCell>
        <mxCell id="6QOI-_YGZ4mxzyUcx8S3-30" value="3." style="text;html=1;align=center;verticalAlign=middle;resizable=0;points=[];autosize=1;strokeColor=none;fillColor=none;" vertex="1" parent="1">
          <mxGeometry x="35" y="568" width="30" height="30" as="geometry" />
        </mxCell>
        <mxCell id="6QOI-_YGZ4mxzyUcx8S3-31" value="4." style="text;html=1;align=center;verticalAlign=middle;resizable=0;points=[];autosize=1;strokeColor=none;fillColor=none;" vertex="1" parent="1">
          <mxGeometry x="35" y="655" width="30" height="30" as="geometry" />
        </mxCell>
        <mxCell id="6QOI-_YGZ4mxzyUcx8S3-32" value="&lt;b&gt;&lt;font style=&quot;font-size: 20px;&quot;&gt;Grand Total =1234/-&lt;/font&gt;&lt;/b&gt;" style="rounded=0;whiteSpace=wrap;html=1;fillColor=#1ba1e2;fontColor=#ffffff;strokeColor=#006EAF;" vertex="1" parent="1">
          <mxGeometry x="440" y="760" width="240" height="60" as="geometry" />
        </mxCell>
        <mxCell id="6QOI-_YGZ4mxzyUcx8S3-71" value="" style="shape=table;startSize=0;container=1;collapsible=0;childLayout=tableLayout;fontSize=16;" vertex="1" parent="1">
          <mxGeometry x="210" y="445" width="560" height="235" as="geometry" />
        </mxCell>
        <mxCell id="6QOI-_YGZ4mxzyUcx8S3-72" value="" style="shape=tableRow;horizontal=0;startSize=0;swimlaneHead=0;swimlaneBody=0;strokeColor=inherit;top=0;left=0;bottom=0;right=0;collapsible=0;dropTarget=0;fillColor=none;points=[[0,0.5],[1,0.5]];portConstraint=eastwest;fontSize=16;" vertex="1" parent="6QOI-_YGZ4mxzyUcx8S3-71">
          <mxGeometry width="560" height="76" as="geometry" />
        </mxCell>
        <mxCell id="6QOI-_YGZ4mxzyUcx8S3-73" value="" style="shape=partialRectangle;html=1;whiteSpace=wrap;connectable=0;strokeColor=inherit;overflow=hidden;fillColor=none;top=0;left=0;bottom=0;right=0;pointerEvents=1;fontSize=16;" vertex="1" parent="6QOI-_YGZ4mxzyUcx8S3-72">
          <mxGeometry width="146" height="76" as="geometry">
            <mxRectangle width="146" height="76" as="alternateBounds" />
          </mxGeometry>
        </mxCell>
        <mxCell id="6QOI-_YGZ4mxzyUcx8S3-74" value="" style="shape=partialRectangle;html=1;whiteSpace=wrap;connectable=0;strokeColor=inherit;overflow=hidden;fillColor=none;top=0;left=0;bottom=0;right=0;pointerEvents=1;fontSize=16;" vertex="1" parent="6QOI-_YGZ4mxzyUcx8S3-72">
          <mxGeometry x="146" width="198" height="76" as="geometry">
            <mxRectangle width="198" height="76" as="alternateBounds" />
          </mxGeometry>
        </mxCell>
        <mxCell id="6QOI-_YGZ4mxzyUcx8S3-75" value="" style="shape=partialRectangle;html=1;whiteSpace=wrap;connectable=0;strokeColor=inherit;overflow=hidden;fillColor=none;top=0;left=0;bottom=0;right=0;pointerEvents=1;fontSize=16;" vertex="1" parent="6QOI-_YGZ4mxzyUcx8S3-72">
          <mxGeometry x="344" width="216" height="76" as="geometry">
            <mxRectangle width="216" height="76" as="alternateBounds" />
          </mxGeometry>
        </mxCell>
        <mxCell id="6QOI-_YGZ4mxzyUcx8S3-76" value="" style="shape=tableRow;horizontal=0;startSize=0;swimlaneHead=0;swimlaneBody=0;strokeColor=inherit;top=0;left=0;bottom=0;right=0;collapsible=0;dropTarget=0;fillColor=none;points=[[0,0.5],[1,0.5]];portConstraint=eastwest;fontSize=16;" vertex="1" parent="6QOI-_YGZ4mxzyUcx8S3-71">
          <mxGeometry y="76" width="560" height="78" as="geometry" />
        </mxCell>
        <mxCell id="6QOI-_YGZ4mxzyUcx8S3-77" value="" style="shape=partialRectangle;html=1;whiteSpace=wrap;connectable=0;strokeColor=inherit;overflow=hidden;fillColor=none;top=0;left=0;bottom=0;right=0;pointerEvents=1;fontSize=16;" vertex="1" parent="6QOI-_YGZ4mxzyUcx8S3-76">
          <mxGeometry width="146" height="78" as="geometry">
            <mxRectangle width="146" height="78" as="alternateBounds" />
          </mxGeometry>
        </mxCell>
        <mxCell id="6QOI-_YGZ4mxzyUcx8S3-78" value="" style="shape=partialRectangle;html=1;whiteSpace=wrap;connectable=0;strokeColor=inherit;overflow=hidden;fillColor=none;top=0;left=0;bottom=0;right=0;pointerEvents=1;fontSize=16;" vertex="1" parent="6QOI-_YGZ4mxzyUcx8S3-76">
          <mxGeometry x="146" width="198" height="78" as="geometry">
            <mxRectangle width="198" height="78" as="alternateBounds" />
          </mxGeometry>
        </mxCell>
        <mxCell id="6QOI-_YGZ4mxzyUcx8S3-79" value="" style="shape=partialRectangle;html=1;whiteSpace=wrap;connectable=0;strokeColor=inherit;overflow=hidden;fillColor=none;top=0;left=0;bottom=0;right=0;pointerEvents=1;fontSize=16;" vertex="1" parent="6QOI-_YGZ4mxzyUcx8S3-76">
          <mxGeometry x="344" width="216" height="78" as="geometry">
            <mxRectangle width="216" height="78" as="alternateBounds" />
          </mxGeometry>
        </mxCell>
        <mxCell id="6QOI-_YGZ4mxzyUcx8S3-80" value="" style="shape=tableRow;horizontal=0;startSize=0;swimlaneHead=0;swimlaneBody=0;strokeColor=inherit;top=0;left=0;bottom=0;right=0;collapsible=0;dropTarget=0;fillColor=none;points=[[0,0.5],[1,0.5]];portConstraint=eastwest;fontSize=16;" vertex="1" parent="6QOI-_YGZ4mxzyUcx8S3-71">
          <mxGeometry y="154" width="560" height="81" as="geometry" />
        </mxCell>
        <mxCell id="6QOI-_YGZ4mxzyUcx8S3-81" value="" style="shape=partialRectangle;html=1;whiteSpace=wrap;connectable=0;strokeColor=inherit;overflow=hidden;fillColor=none;top=0;left=0;bottom=0;right=0;pointerEvents=1;fontSize=16;" vertex="1" parent="6QOI-_YGZ4mxzyUcx8S3-80">
          <mxGeometry width="146" height="81" as="geometry">
            <mxRectangle width="146" height="81" as="alternateBounds" />
          </mxGeometry>
        </mxCell>
        <mxCell id="6QOI-_YGZ4mxzyUcx8S3-82" value="" style="shape=partialRectangle;html=1;whiteSpace=wrap;connectable=0;strokeColor=inherit;overflow=hidden;fillColor=none;top=0;left=0;bottom=0;right=0;pointerEvents=1;fontSize=16;" vertex="1" parent="6QOI-_YGZ4mxzyUcx8S3-80">
          <mxGeometry x="146" width="198" height="81" as="geometry">
            <mxRectangle width="198" height="81" as="alternateBounds" />
          </mxGeometry>
        </mxCell>
        <mxCell id="6QOI-_YGZ4mxzyUcx8S3-83" value="" style="shape=partialRectangle;html=1;whiteSpace=wrap;connectable=0;strokeColor=inherit;overflow=hidden;fillColor=none;top=0;left=0;bottom=0;right=0;pointerEvents=1;fontSize=16;" vertex="1" parent="6QOI-_YGZ4mxzyUcx8S3-80">
          <mxGeometry x="344" width="216" height="81" as="geometry">
            <mxRectangle width="216" height="81" as="alternateBounds" />
          </mxGeometry>
        </mxCell>
        <mxCell id="6QOI-_YGZ4mxzyUcx8S3-58" value="" style="shape=table;startSize=0;container=1;collapsible=0;childLayout=tableLayout;fontSize=16;" vertex="1" parent="1">
          <mxGeometry x="75" y="445" width="480" height="235" as="geometry" />
        </mxCell>
        <mxCell id="6QOI-_YGZ4mxzyUcx8S3-59" value="" style="shape=tableRow;horizontal=0;startSize=0;swimlaneHead=0;swimlaneBody=0;strokeColor=inherit;top=0;left=0;bottom=0;right=0;collapsible=0;dropTarget=0;fillColor=none;points=[[0,0.5],[1,0.5]];portConstraint=eastwest;fontSize=16;" vertex="1" parent="6QOI-_YGZ4mxzyUcx8S3-58">
          <mxGeometry width="480" height="78" as="geometry" />
        </mxCell>
        <mxCell id="6QOI-_YGZ4mxzyUcx8S3-60" value="" style="shape=partialRectangle;html=1;whiteSpace=wrap;connectable=0;strokeColor=inherit;overflow=hidden;fillColor=none;top=0;left=0;bottom=0;right=0;pointerEvents=1;fontSize=16;" vertex="1" parent="6QOI-_YGZ4mxzyUcx8S3-59">
          <mxGeometry width="125" height="78" as="geometry">
            <mxRectangle width="125" height="78" as="alternateBounds" />
          </mxGeometry>
        </mxCell>
        <mxCell id="6QOI-_YGZ4mxzyUcx8S3-61" value="" style="shape=partialRectangle;html=1;whiteSpace=wrap;connectable=0;strokeColor=inherit;overflow=hidden;fillColor=none;top=0;left=0;bottom=0;right=0;pointerEvents=1;fontSize=16;" vertex="1" parent="6QOI-_YGZ4mxzyUcx8S3-59">
          <mxGeometry x="125" width="170" height="78" as="geometry">
            <mxRectangle width="170" height="78" as="alternateBounds" />
          </mxGeometry>
        </mxCell>
        <mxCell id="6QOI-_YGZ4mxzyUcx8S3-62" value="" style="shape=partialRectangle;html=1;whiteSpace=wrap;connectable=0;strokeColor=inherit;overflow=hidden;fillColor=none;top=0;left=0;bottom=0;right=0;pointerEvents=1;fontSize=16;" vertex="1" parent="6QOI-_YGZ4mxzyUcx8S3-59">
          <mxGeometry x="295" width="185" height="78" as="geometry">
            <mxRectangle width="185" height="78" as="alternateBounds" />
          </mxGeometry>
        </mxCell>
        <mxCell id="6QOI-_YGZ4mxzyUcx8S3-63" value="" style="shape=tableRow;horizontal=0;startSize=0;swimlaneHead=0;swimlaneBody=0;strokeColor=inherit;top=0;left=0;bottom=0;right=0;collapsible=0;dropTarget=0;fillColor=none;points=[[0,0.5],[1,0.5]];portConstraint=eastwest;fontSize=16;" vertex="1" parent="6QOI-_YGZ4mxzyUcx8S3-58">
          <mxGeometry y="78" width="480" height="79" as="geometry" />
        </mxCell>
        <mxCell id="6QOI-_YGZ4mxzyUcx8S3-64" value="" style="shape=partialRectangle;html=1;whiteSpace=wrap;connectable=0;strokeColor=inherit;overflow=hidden;fillColor=none;top=0;left=0;bottom=0;right=0;pointerEvents=1;fontSize=16;" vertex="1" parent="6QOI-_YGZ4mxzyUcx8S3-63">
          <mxGeometry width="125" height="79" as="geometry">
            <mxRectangle width="125" height="79" as="alternateBounds" />
          </mxGeometry>
        </mxCell>
        <mxCell id="6QOI-_YGZ4mxzyUcx8S3-65" value="" style="shape=partialRectangle;html=1;whiteSpace=wrap;connectable=0;strokeColor=inherit;overflow=hidden;fillColor=none;top=0;left=0;bottom=0;right=0;pointerEvents=1;fontSize=16;" vertex="1" parent="6QOI-_YGZ4mxzyUcx8S3-63">
          <mxGeometry x="125" width="170" height="79" as="geometry">
            <mxRectangle width="170" height="79" as="alternateBounds" />
          </mxGeometry>
        </mxCell>
        <mxCell id="6QOI-_YGZ4mxzyUcx8S3-66" value="" style="shape=partialRectangle;html=1;whiteSpace=wrap;connectable=0;strokeColor=inherit;overflow=hidden;fillColor=none;top=0;left=0;bottom=0;right=0;pointerEvents=1;fontSize=16;" vertex="1" parent="6QOI-_YGZ4mxzyUcx8S3-63">
          <mxGeometry x="295" width="185" height="79" as="geometry">
            <mxRectangle width="185" height="79" as="alternateBounds" />
          </mxGeometry>
        </mxCell>
        <mxCell id="6QOI-_YGZ4mxzyUcx8S3-67" value="" style="shape=tableRow;horizontal=0;startSize=0;swimlaneHead=0;swimlaneBody=0;strokeColor=inherit;top=0;left=0;bottom=0;right=0;collapsible=0;dropTarget=0;fillColor=none;points=[[0,0.5],[1,0.5]];portConstraint=eastwest;fontSize=16;" vertex="1" parent="6QOI-_YGZ4mxzyUcx8S3-58">
          <mxGeometry y="157" width="480" height="78" as="geometry" />
        </mxCell>
        <mxCell id="6QOI-_YGZ4mxzyUcx8S3-68" value="" style="shape=partialRectangle;html=1;whiteSpace=wrap;connectable=0;strokeColor=inherit;overflow=hidden;fillColor=none;top=0;left=0;bottom=0;right=0;pointerEvents=1;fontSize=16;" vertex="1" parent="6QOI-_YGZ4mxzyUcx8S3-67">
          <mxGeometry width="125" height="78" as="geometry">
            <mxRectangle width="125" height="78" as="alternateBounds" />
          </mxGeometry>
        </mxCell>
        <mxCell id="6QOI-_YGZ4mxzyUcx8S3-69" value="" style="shape=partialRectangle;html=1;whiteSpace=wrap;connectable=0;strokeColor=inherit;overflow=hidden;fillColor=none;top=0;left=0;bottom=0;right=0;pointerEvents=1;fontSize=16;" vertex="1" parent="6QOI-_YGZ4mxzyUcx8S3-67">
          <mxGeometry x="125" width="170" height="78" as="geometry">
            <mxRectangle width="170" height="78" as="alternateBounds" />
          </mxGeometry>
        </mxCell>
        <mxCell id="6QOI-_YGZ4mxzyUcx8S3-70" value="" style="shape=partialRectangle;html=1;whiteSpace=wrap;connectable=0;strokeColor=inherit;overflow=hidden;fillColor=none;top=0;left=0;bottom=0;right=0;pointerEvents=1;fontSize=16;" vertex="1" parent="6QOI-_YGZ4mxzyUcx8S3-67">
          <mxGeometry x="295" width="185" height="78" as="geometry">
            <mxRectangle width="185" height="78" as="alternateBounds" />
          </mxGeometry>
        </mxCell>
      </root>
    </mxGraphModel>
  </diagram>
</mxfile>
